<svg width="44" height="24" viewBox="0 0 44 24" fill="none" xmlns="http://www.w3.org/2000/svg">
<mask id="path-1-outside-1_47_1418" maskUnits="userSpaceOnUse" x="-1" y="-2" width="46" height="27" fill="black">
<rect fill="white" x="-1" y="-2" width="46" height="27"/>
<path d="M3.40167 20.3717C1.31167 18.1972 0.266667 15.3789 0.266667 11.9167C0.266667 8.45444 1.31167 5.63611 3.40167 3.46167C5.51278 1.28722 8.16222 0.2 11.35 0.2C14.5378 0.2 17.1767 1.28722 19.2667 3.46167C21.3778 5.63611 22.4333 8.45444 22.4333 11.9167C22.4333 15.3789 21.3778 18.1972 19.2667 20.3717C17.1767 22.5461 14.5378 23.6333 11.35 23.6333C8.16222 23.6333 5.51278 22.5461 3.40167 20.3717ZM7.77167 7.19833C6.885 8.275 6.44167 9.84778 6.44167 11.9167C6.44167 13.9856 6.885 15.5583 7.77167 16.635C8.65833 17.7117 9.85111 18.25 11.35 18.25C12.8489 18.25 14.0417 17.7117 14.9283 16.635C15.815 15.5583 16.2583 13.9856 16.2583 11.9167C16.2583 9.84778 15.815 8.275 14.9283 7.19833C14.0417 6.12167 12.8489 5.58333 11.35 5.58333C9.85111 5.58333 8.65833 6.12167 7.77167 7.19833ZM24.342 16.0333H30.3587C30.4853 16.5189 30.7175 16.9411 31.0553 17.3C31.7731 18.1444 32.8075 18.5667 34.1587 18.5667C35.2353 18.5667 36.0798 18.3133 36.692 17.8067C37.3253 17.2789 37.642 16.635 37.642 15.875C37.642 15.1361 37.3253 14.5028 36.692 13.975C36.0798 13.4472 35.2353 13.1833 34.1587 13.1833H29.092V9.38333L34.1587 6.21667V5.9H25.6087V0.833332H42.2337V5.9L37.3253 8.90833L36.977 9.035V9.415L37.0403 9.38333C38.9192 9.38333 40.492 10.0061 41.7587 11.2517C43.0253 12.4972 43.6587 14.0383 43.6587 15.875C43.6587 18.0917 42.8037 19.9389 41.0937 21.4167C39.3837 22.8944 37.072 23.6333 34.1587 23.6333C30.422 23.6333 27.6775 22.3667 25.9253 19.8333C25.1231 18.7144 24.5953 17.4478 24.342 16.0333Z"/>
</mask>
<path d="M3.40167 20.3717L2.48843 21.2494L2.49286 21.254L3.40167 20.3717ZM3.40167 3.46167L2.49285 2.57932L2.48844 2.58391L3.40167 3.46167ZM19.2667 3.46167L18.3534 4.33944L18.3579 4.344L19.2667 3.46167ZM19.2667 20.3717L18.3579 19.4893L18.3534 19.4939L19.2667 20.3717ZM4.31489 19.4939C2.48545 17.5905 1.53333 15.1038 1.53333 11.9167H-1C-1 15.6539 0.137887 18.8039 2.48844 21.2494L4.31489 19.4939ZM1.53333 11.9167C1.53333 8.72949 2.48545 6.24279 4.31489 4.33943L2.48844 2.58391C0.137887 5.02943 -1 8.1794 -1 11.9167H1.53333ZM4.31047 4.344C6.16958 2.42912 8.48482 1.46667 11.35 1.46667V-1.06667C7.83963 -1.06667 4.85598 0.14532 2.49286 2.57933L4.31047 4.344ZM11.35 1.46667C14.2151 1.46667 16.5171 2.42884 18.3534 4.33943L20.1799 2.58391C17.8363 0.145599 14.8605 -1.06667 11.35 -1.06667V1.46667ZM18.3579 4.344C20.2064 6.248 21.1667 8.73316 21.1667 11.9167H23.7C23.7 8.17573 22.5492 5.02422 20.1755 2.57933L18.3579 4.344ZM21.1667 11.9167C21.1667 15.1002 20.2064 17.5853 18.3579 19.4893L20.1755 21.254C22.5492 18.8091 23.7 15.6576 23.7 11.9167H21.1667ZM18.3534 19.4939C16.5171 21.4045 14.2151 22.3667 11.35 22.3667V24.9C14.8605 24.9 17.8363 23.6877 20.1799 21.2494L18.3534 19.4939ZM11.35 22.3667C8.48482 22.3667 6.16958 21.4042 4.31047 19.4893L2.49286 21.254C4.85598 23.688 7.83963 24.9 11.35 24.9V22.3667ZM6.79389 6.3931C5.64873 7.78366 5.175 9.69112 5.175 11.9167H7.70833C7.70833 10.0044 8.12127 8.76634 8.74944 8.00356L6.79389 6.3931ZM5.175 11.9167C5.175 14.1422 5.64873 16.0497 6.79389 17.4402L8.74944 15.8298C8.12127 15.067 7.70833 13.8289 7.70833 11.9167H5.175ZM6.79389 17.4402C7.94096 18.8331 9.50489 19.5167 11.35 19.5167V16.9833C10.1973 16.9833 9.3757 16.5902 8.74944 15.8298L6.79389 17.4402ZM11.35 19.5167C13.1951 19.5167 14.759 18.8331 15.9061 17.4402L13.9506 15.8298C13.3243 16.5902 12.5027 16.9833 11.35 16.9833V19.5167ZM15.9061 17.4402C17.0513 16.0497 17.525 14.1422 17.525 11.9167H14.9917C14.9917 13.8289 14.5787 15.067 13.9506 15.8298L15.9061 17.4402ZM17.525 11.9167C17.525 9.69112 17.0513 7.78366 15.9061 6.3931L13.9506 8.00356C14.5787 8.76634 14.9917 10.0044 14.9917 11.9167H17.525ZM15.9061 6.3931C14.759 5.00023 13.1951 4.31667 11.35 4.31667V6.85C12.5027 6.85 13.3243 7.2431 13.9506 8.00356L15.9061 6.3931ZM11.35 4.31667C9.50489 4.31667 7.94096 5.00023 6.79389 6.3931L8.74944 8.00356C9.3757 7.2431 10.1973 6.85 11.35 6.85V4.31667ZM24.342 16.0333V14.7667H22.8283L23.0952 16.2566L24.342 16.0333ZM30.3587 16.0333L31.5843 15.7136L31.3373 14.7667H30.3587V16.0333ZM31.0553 17.3L32.0204 16.4796L31.9997 16.4552L31.9777 16.4319L31.0553 17.3ZM36.692 17.8067L37.4996 18.7825L37.5029 18.7797L36.692 17.8067ZM36.692 13.975L35.8649 14.9344L35.873 14.9413L35.8811 14.9481L36.692 13.975ZM29.092 13.1833H27.8253V14.45H29.092V13.1833ZM29.092 9.38333L28.4207 8.3092L27.8253 8.68129V9.38333H29.092ZM34.1587 6.21667L34.83 7.2908L35.4253 6.91871V6.21667H34.1587ZM34.1587 5.9H35.4253V4.63333H34.1587V5.9ZM25.6087 5.9H24.342V7.16667H25.6087V5.9ZM25.6087 0.833332V-0.433334H24.342V0.833332H25.6087ZM42.2337 0.833332H43.5003V-0.433334H42.2337V0.833332ZM42.2337 5.9L42.8956 6.97996L43.5003 6.60931V5.9H42.2337ZM37.3253 8.90833L37.7582 10.0987L37.8783 10.0551L37.9872 9.98829L37.3253 8.90833ZM36.977 9.035L36.5441 7.84459L35.7103 8.14779V9.035H36.977ZM36.977 9.415H35.7103V11.4645L37.5435 10.5479L36.977 9.415ZM37.0403 9.38333V8.11667H36.7413L36.4739 8.25039L37.0403 9.38333ZM41.7587 11.2517L42.6468 10.3485L41.7587 11.2517ZM41.0937 21.4167L40.2654 20.4583L41.0937 21.4167ZM25.9253 19.8333L26.9671 19.1128L26.961 19.104L26.9547 19.0953L25.9253 19.8333ZM24.342 17.3H30.3587V14.7667H24.342V17.3ZM29.133 16.3531C29.3122 17.04 29.647 17.6518 30.1329 18.1681L31.9777 16.4319C31.7881 16.2304 31.6584 15.9977 31.5843 15.7136L29.133 16.3531ZM30.0902 18.1204C31.1009 19.3094 32.525 19.8333 34.1587 19.8333V17.3C33.0901 17.3 32.4453 16.9795 32.0204 16.4796L30.0902 18.1204ZM34.1587 19.8333C35.4256 19.8333 36.5909 19.5345 37.4996 18.7825L35.8844 16.8308C35.5686 17.0922 35.0451 17.3 34.1587 17.3V19.8333ZM37.5029 18.7797C38.3972 18.0345 38.9087 17.0457 38.9087 15.875H36.3753C36.3753 16.2243 36.2535 16.5233 35.8811 16.8336L37.5029 18.7797ZM38.9087 15.875C38.9087 14.7137 38.3873 13.7389 37.5029 13.0019L35.8811 14.9481C36.2633 15.2666 36.3753 15.5585 36.3753 15.875H38.9087ZM37.519 13.0156C36.6099 12.2319 35.437 11.9167 34.1587 11.9167V14.45C35.0337 14.45 35.5496 14.6626 35.8649 14.9344L37.519 13.0156ZM34.1587 11.9167H29.092V14.45H34.1587V11.9167ZM30.3587 13.1833V9.38333H27.8253V13.1833H30.3587ZM29.7633 10.4575L34.83 7.2908L33.4873 5.14254L28.4207 8.3092L29.7633 10.4575ZM35.4253 6.21667V5.9H32.892V6.21667H35.4253ZM34.1587 4.63333H25.6087V7.16667H34.1587V4.63333ZM26.8753 5.9V0.833332H24.342V5.9H26.8753ZM25.6087 2.1H42.2337V-0.433334H25.6087V2.1ZM40.967 0.833332V5.9H43.5003V0.833332H40.967ZM41.5717 4.82004L36.6634 7.82837L37.9872 9.98829L42.8956 6.97996L41.5717 4.82004ZM36.8924 7.71793L36.5441 7.84459L37.4099 10.2254L37.7582 10.0987L36.8924 7.71793ZM35.7103 9.035V9.415H38.2437V9.035H35.7103ZM37.5435 10.5479L37.6068 10.5163L36.4739 8.25039L36.4105 8.28205L37.5435 10.5479ZM37.0403 10.65C38.6082 10.65 39.8555 11.1567 40.8705 12.1548L42.6468 10.3485C41.1285 8.85552 39.2303 8.11667 37.0403 8.11667V10.65ZM40.8705 12.1548C41.886 13.1534 42.392 14.3651 42.392 15.875H44.9253C44.9253 13.7116 44.1646 11.8411 42.6468 10.3485L40.8705 12.1548ZM42.392 15.875C42.392 17.7155 41.7033 19.2157 40.2654 20.4583L41.9219 22.375C43.904 20.6621 44.9253 18.4678 44.9253 15.875H42.392ZM40.2654 20.4583C38.8455 21.6854 36.8578 22.3667 34.1587 22.3667V24.9C37.2862 24.9 39.9218 24.1035 41.9219 22.375L40.2654 20.4583ZM34.1587 22.3667C30.7371 22.3667 28.4307 21.2289 26.9671 19.1128L24.8836 20.5539C26.9244 23.5045 30.1069 24.9 34.1587 24.9V22.3667ZM26.9547 19.0953C26.2672 18.1364 25.8104 17.0472 25.5888 15.81L23.0952 16.2566C23.3803 17.8484 23.979 19.2925 24.8959 20.5714L26.9547 19.0953Z" fill="#757F93" mask="url(#path-1-outside-1_47_1418)"/>
</svg>
